<svg width="160" height="59" viewBox="0 0 160 59" fill="none" xmlns="http://www.w3.org/2000/svg">
<path d="M79.6918 18.0763L87.3004 17.5901C87.4663 18.8493 87.802 19.8078 88.3075 20.4659C89.1333 21.5325 90.3102 22.0658 91.8383 22.0658C92.9786 22.0658 93.8584 21.7937 94.4777 21.2496C94.7613 21.0237 94.9917 20.736 95.152 20.4077C95.3122 20.0794 95.3983 19.7187 95.4038 19.3521C95.3991 19.0007 95.319 18.6545 95.169 18.3379C95.019 18.0213 94.8028 17.742 94.5356 17.5194C93.9568 16.9812 92.5917 16.4715 90.4404 15.9902C86.9328 15.1888 84.4313 14.1222 82.9361 12.7904C82.2084 12.1699 81.6274 11.3906 81.2361 10.5102C80.8448 9.62976 80.6533 8.67095 80.6758 7.7049C80.6813 6.33969 81.0842 5.00678 81.8334 3.87455C82.6891 2.59843 83.8979 1.60984 85.3063 1.03419C86.8498 0.344731 88.9722 0 91.6733 0C94.9803 0 97.502 0.626606 99.2385 1.87982C100.975 3.13303 102.008 5.12481 102.338 7.85516L94.799 8.30302C94.606 7.12445 94.1854 6.26213 93.5371 5.71606C92.8889 5.16999 92.0013 4.89794 90.8746 4.8999C89.9456 4.8999 89.2452 5.1032 88.7763 5.50392C88.5549 5.67729 88.3759 5.90052 88.2534 6.15612C88.1309 6.41171 88.0682 6.69273 88.0702 6.97713C88.0772 7.19783 88.1329 7.41409 88.2331 7.60993C88.3333 7.80578 88.4754 7.97618 88.649 8.10856C89.0252 8.45623 89.9195 8.78034 91.3318 9.08088C94.8279 9.84695 97.3361 10.6228 98.8565 11.4085C100.377 12.1943 101.477 13.1676 102.156 14.3285C102.849 15.5061 103.207 16.8568 103.189 18.2295C103.197 19.8917 102.719 21.5187 101.814 22.9025C100.873 24.3454 99.5338 25.473 97.9651 26.1436C96.3155 26.8802 94.2375 27.2485 91.7312 27.2485C87.3303 27.2485 84.2818 26.3862 82.5859 24.6616C80.8899 22.9369 79.9252 20.7418 79.6918 18.0763ZM1.8146 26.8066V0.44491H15.1448C17.6164 0.44491 19.5052 0.659999 20.8114 1.09018C22.0981 1.50856 23.2104 2.35274 23.9718 3.48856C24.8004 4.74926 25.2223 6.24166 25.1786 7.75793C25.2122 9.08112 24.8921 10.3887 24.2525 11.5411C23.6388 12.6094 22.7696 13.5024 21.726 14.1369C20.8485 14.6297 19.9016 14.9815 18.9187 15.18C19.6542 15.4005 20.3549 15.7269 20.9995 16.1493C21.4787 16.5548 21.9099 17.0156 22.2845 17.5224C22.706 18.0261 23.0791 18.5697 23.3988 19.1459L27.2711 26.8066H18.2328L13.9611 18.7422C13.419 17.6992 12.9366 17.0215 12.5141 16.7092C11.9383 16.3029 11.2523 16.0897 10.5519 16.0993H9.83992V26.8066H1.8146ZM9.83992 11.1198H13.2202C13.9356 11.0654 14.6447 10.9451 15.3387 10.7603C15.8573 10.659 16.3199 10.3636 16.6353 9.93239C16.9687 9.49677 17.1464 8.9584 17.1388 8.40614C17.1606 8.03951 17.1003 7.67263 16.9624 7.33321C16.8245 6.99378 16.6127 6.69068 16.343 6.44677C15.8143 5.99106 14.8197 5.7632 13.3591 5.7632H9.83992V11.1198ZM0 49.3644L7.60857 48.8812C7.7745 50.1403 8.11022 51.0988 8.61572 51.7569C9.43185 52.8235 10.6117 53.3568 12.1552 53.3568C13.2955 53.3568 14.1753 53.0837 14.7946 52.5377C15.0782 52.3118 15.3086 52.0241 15.4689 51.6958C15.6291 51.3674 15.7152 51.0068 15.7207 50.6402C15.7156 50.2888 15.6353 49.9428 15.4853 49.6262C15.3354 49.3097 15.1194 49.0303 14.8525 48.8075C14.2737 48.2693 12.9086 47.7605 10.7573 47.2813C7.24971 46.4759 4.74824 45.4093 3.25296 44.0814C2.52542 43.4602 1.9445 42.6803 1.55323 41.7994C1.16197 40.9186 0.970382 39.9594 0.992674 38.993C0.99908 37.6279 1.40185 36.2952 2.15031 35.1626C3.00603 33.8865 4.21478 32.8979 5.62323 32.3223C7.16674 31.6328 9.28908 31.2881 11.9902 31.2881C15.2972 31.2881 17.8189 31.9147 19.5554 33.1679C21.2919 34.4211 22.325 36.4129 22.655 39.1432L15.1303 39.594C14.9374 38.4155 14.5168 37.5522 13.8685 37.0041C13.2202 36.4561 12.3337 36.187 11.2088 36.1968C10.2808 36.1968 9.58138 36.3932 9.11061 36.7861C8.88915 36.9595 8.71015 37.1827 8.58764 37.4383C8.46512 37.6939 8.40242 37.9749 8.40445 38.2593C8.41105 38.4805 8.46651 38.6973 8.56671 38.8937C8.66692 39.0901 8.8093 39.261 8.98327 39.3937C9.3595 39.7414 10.2538 40.0645 11.6661 40.363C15.1622 41.1291 17.6704 41.905 19.1907 42.6907C20.7111 43.4764 21.8109 44.4497 22.49 45.6106C23.1827 46.7884 23.5404 48.139 23.5232 49.5117C23.5319 51.1739 23.0532 52.801 22.1485 54.1847C21.2072 55.6276 19.8681 56.7552 18.2994 57.4258C16.6497 58.1624 14.5718 58.5307 12.0655 58.5307C7.66453 58.5307 4.61608 57.6684 2.92014 55.9437C1.2242 54.2191 0.250821 52.026 0 49.3644ZM47.1737 47.2989L54.1832 49.4557C53.7956 51.2661 53.0372 52.9729 51.9577 54.4646C50.974 55.7827 49.6801 56.8274 48.1954 57.5024C46.6943 58.184 44.7842 58.5248 42.465 58.5248C39.652 58.5248 37.3541 58.1094 35.5713 57.2785C33.7886 56.4476 32.245 54.9832 30.9408 52.8853C29.6442 50.7895 28.9969 48.1072 28.9988 44.8387C28.9988 40.4819 30.1372 37.1318 32.4139 34.7884C34.6905 32.445 37.9126 31.2743 42.0801 31.2763C45.3427 31.2763 47.9059 31.9481 49.7697 33.2916C51.6335 34.6352 53.0188 36.6977 53.9257 39.4791L46.8641 41.079C46.6983 40.452 46.4365 39.8554 46.0885 39.3112C45.6608 38.7066 45.0984 38.2139 44.4475 37.8733C43.7729 37.5311 43.0276 37.3584 42.274 37.3695C40.4623 37.3695 39.0741 38.112 38.1094 39.597C37.3763 40.6989 37.0106 42.4285 37.0126 44.7856C37.0126 47.7046 37.4486 49.7062 38.3207 50.7904C39.1928 51.8747 40.417 52.4159 41.9933 52.4139C43.5214 52.4139 44.679 51.9769 45.4662 51.1028C46.2534 50.2287 46.8226 48.9607 47.1737 47.2989ZM60.3448 31.733H68.3411V40.9494H77.0813V31.733H85.1124V58.0828H77.0813V47.4315H68.3411V58.0917H60.3448V31.733ZM90.0903 44.9241C90.0903 40.6263 91.2672 37.2772 93.6211 34.8768C95.9749 32.4765 99.2549 31.2782 103.461 31.2822C107.767 31.2822 111.086 32.4607 113.417 34.8179C115.747 37.175 116.916 40.4721 116.921 44.709C116.921 47.791 116.412 50.317 115.393 52.2872C114.402 54.2315 112.866 55.8322 110.98 56.8866C109.05 57.9827 106.652 58.5307 103.785 58.5307C100.868 58.5307 98.4561 58.0573 96.5499 57.1105C94.5914 56.1224 92.9708 54.5566 91.8991 52.6172C90.6913 50.5704 90.0883 48.0061 90.0903 44.9241ZM98.0866 44.9624C98.0866 47.624 98.569 49.5353 99.5337 50.6962C100.498 51.857 101.82 52.4375 103.499 52.4375C105.218 52.4375 106.548 51.8688 107.49 50.7315C108.431 49.5942 108.902 47.5513 108.902 44.6029C108.902 42.1221 108.41 40.309 107.426 39.1639C106.442 38.0187 105.109 37.4471 103.426 37.449C102.695 37.4223 101.967 37.5642 101.297 37.8642C100.627 38.1642 100.032 38.6145 99.5568 39.1815C98.5786 40.3601 98.0886 42.2871 98.0866 44.9624Z" fill="#DDDDDD"/>
<path d="M113.53 44.9239C113.53 40.6261 114.706 37.277 117.06 34.8766C119.414 32.4763 122.694 31.2781 126.9 31.282C131.211 31.282 134.53 32.4605 136.859 34.8177C139.188 37.1748 140.352 40.4729 140.352 44.7118C140.352 47.7937 139.844 50.3198 138.827 52.29C137.835 54.2336 136.299 55.8341 134.413 56.8893C132.484 57.9854 130.086 58.5334 127.219 58.5334C124.299 58.5334 121.888 58.06 119.983 57.1133C118.025 56.1244 116.403 54.5589 115.33 52.62C114.13 50.5712 113.53 48.0059 113.53 44.9239ZM121.529 44.9622C121.529 47.6238 122.011 49.5351 122.976 50.696C123.941 51.8568 125.264 52.4383 126.947 52.4402C128.666 52.4402 129.996 51.8716 130.938 50.7343C131.879 49.5969 132.35 47.5541 132.35 44.6057C132.35 42.1248 131.859 40.3118 130.877 39.1666C129.895 38.0214 128.561 37.4498 126.877 37.4518C126.144 37.4231 125.415 37.5638 124.743 37.8633C124.071 38.1629 123.475 38.6135 122.999 39.1813C122.017 40.3599 121.527 42.2869 121.529 44.9622Z" fill="#DDDDDD"/>
<path d="M139.518 31.7328H147.518V51.5946H160V58.0767H139.518V31.7328Z" fill="#DDDDDD"/>
</svg>
